<?xml version="1.0" standalone="no"?>
<!DOCTYPE svg PUBLIC "-//W3C//DTD SVG 20010904//EN"
 "http://www.w3.org/TR/2001/REC-SVG-20010904/DTD/svg10.dtd">
<svg version="1.0" xmlns="http://www.w3.org/2000/svg"
 width="1197.000000pt" height="1188.000000pt" viewBox="0 0 1197.000000 1188.000000"
 preserveAspectRatio="xMidYMid meet">
<metadata>
Created by potrace 1.16, written by Peter Selinger 2001-2019
</metadata>
<g transform="translate(0.000000,1188.000000) scale(0.100000,-0.100000)"
fill="#000000" stroke="none">
<path d="M7450 11762 c-19 -2 -38 -6 -42 -10 -3 -4 -9 -259 -13 -566 -3 -308
-8 -563 -10 -567 -3 -4 -245 -5 -538 -3 -673 5 -2661 15 -3336 17 l-514 2 -2
505 -2 505 -98 5 c-53 3 -102 2 -109 -2 -8 -5 -11 -143 -12 -510 l0 -503
-1220 0 c-670 -1 -1243 -2 -1271 -3 l-53 -2 6 -92 c4 -51 10 -97 15 -102 4 -5
115 -11 246 -12 628 -9 726 -12 735 -26 5 -7 6 -608 3 -1408 -3 -767 -5 -1402
-5 -1410 0 -13 -61 -15 -487 -15 l-488 0 -3 -101 -3 -102 30 -4 c16 -2 236 -5
488 -7 252 -1 459 -4 461 -5 8 -8 -6 -4335 -14 -4348 -3 -5 -238 -8 -521 -7
-421 1 -517 -2 -524 -13 -5 -7 -6 -49 -2 -92 4 -57 3 -77 -6 -72 -15 10 -14
-19 2 -32 8 -7 192 -11 531 -11 285 -1 523 -4 528 -7 6 -4 7 -264 4 -668 -4
-363 -3 -913 1 -1221 l8 -560 99 -3 c60 -2 103 1 111 8 11 9 12 102 8 498 l-6
487 1431 3 1432 3 1 -288 c0 -158 1 -418 2 -578 l2 -290 99 -3 c55 -1 103 1
108 6 4 4 9 81 10 170 3 144 5 163 20 168 10 3 23 2 30 -2 13 -8 334 -10 2878
-19 784 -3 1722 -8 2085 -11 363 -4 879 -5 1147 -4 408 2 488 0 492 -11 4 -12
17 -352 16 -427 l0 -22 375 0 375 0 4 23 c3 12 7 687 11 1500 l5 1477 -267 -2
-267 -3 3 410 c2 226 4 574 4 775 -1 1441 0 1845 2 1915 2 44 6 332 10 640 3
308 8 625 10 705 10 426 16 906 21 1625 3 440 7 971 9 1180 6 632 7 1307 1
1312 -3 3 -51 2 -108 -2 l-103 -7 -2 -465 c-1 -256 -5 -468 -7 -471 -3 -2
-820 -5 -1815 -6 -1467 -1 -1813 2 -1823 12 -10 10 -13 129 -13 572 0 307 -3
561 -7 565 -7 7 -114 12 -168 7z m-5983 -1533 c1 -96 4 -198 7 -227 2 -29 0
-68 -6 -88 -6 -24 -6 -39 1 -48 7 -9 9 -85 7 -227 -2 -118 -1 -233 3 -256 5
-23 4 -47 0 -54 -4 -8 -3 -19 2 -25 6 -8 6 -14 0 -18 -5 -4 -7 -63 -5 -143 2
-101 0 -139 -9 -145 -9 -6 -9 -10 1 -16 18 -12 12 -154 -7 -160 -11 -4 -13 4
-7 39 10 59 7 110 -6 126 -6 7 -6 13 -1 13 5 0 10 46 10 103 0 56 1 131 1 167
2 75 -5 585 -8 585 0 0 -2 125 -3 278 -1 181 1 276 8 274 6 -2 11 -73 12 -178z
m9793 145 c8 -9 8 -1662 0 -1814 -4 -74 -11 -319 -15 -543 -5 -273 -12 -410
-19 -414 -14 -9 -618 -15 -1231 -13 -269 2 -916 2 -1438 1 l-947 -2 6 1183 c3
651 5 1279 4 1395 l-2 212 153 3 c268 5 3483 -3 3489 -8z m-24 -3016 c8 -9 8
-671 0 -948 -10 -329 -17 -750 -21 -1319 -2 -299 -7 -546 -9 -549 -7 -6 -1676
-3 -1687 3 -4 3 -6 69 -4 148 6 222 13 764 21 1456 4 349 8 648 9 663 1 15 2
145 3 288 l2 259 113 3 c241 6 1566 3 1573 -4z m-1923 -630 c-2 -348 -5 -638
-8 -645 -2 -7 -5 -297 -7 -645 -2 -348 -4 -694 -6 -770 l-3 -136 -852 5 -852
5 3 801 c1 441 4 1016 7 1277 2 261 5 532 5 602 l0 127 28 4 c15 2 401 5 858
6 l831 1 -4 -632z m1895 -2429 c5 -11 7 -35 5 -52 -1 -18 -2 -221 -1 -452 2
-684 1 -795 -6 -803 -9 -9 -3588 -7 -3611 2 -15 5 -16 57 -13 651 2 354 6 647
9 649 3 3 808 8 1789 11 982 4 1787 8 1789 11 11 11 32 2 39 -17z m-3854 -59
c-3 -36 -6 -330 -7 -655 l-2 -590 -820 3 c-451 1 -1084 3 -1407 4 -533 1 -588
2 -589 17 -1 26 4 955 6 1087 1 66 5 126 9 132 4 7 2 12 -3 12 -18 0 -12 28 7
34 23 8 112 9 487 7 269 -1 1236 9 1242 13 1 0 245 1 542 1 l541 0 -6 -65z
m-1425 -1483 c3 -1 89 0 191 3 102 3 187 3 190 0 3 -3 221 -5 485 -4 264 1
495 -1 513 -4 l33 -4 -7 -487 c-3 -267 -6 -499 -6 -516 1 -16 1 -64 0 -105 0
-41 0 -88 1 -104 0 -23 -2 -27 -11 -18 -16 16 -28 15 -28 -1 0 -10 -89 -12
-427 -10 -530 2 -555 3 -571 16 -10 8 -16 7 -23 -4 -8 -12 -10 -12 -19 1 -8
12 -12 13 -19 2 -6 -11 -162 -13 -862 -9 -470 3 -854 5 -854 6 0 1 1 169 2
373 1 205 2 484 2 620 l1 247 53 3 c58 3 1346 -1 1356 -5z"/>
</g>
</svg>
